<?xml version="1.0" encoding="utf-8"?>
<!DOCTYPE svg PUBLIC "-//W3C//DTD SVG 1.1//EN" "http://www.w3.org/Graphics/SVG/1.1/DTD/svg11.dtd">
<svg version="1.1" id="DaniloRosari" xmlns="http://www.w3.org/2000/svg" xmlns:xlink="http://www.w3.org/1999/xlink" x="0px" y="0px"
	 width="1024px" height="1024px" viewBox="0 0 1024 1024" enable-background="new 0 0 1024 1024" xml:space="preserve">
<g>
	<g>
		<g>
			<linearGradient id="SVGID_1_" gradientUnits="userSpaceOnUse" x1="185.7129" y1="-53.1465" x2="838.287" y2="1077.1453">
				<stop  offset="0" style="stop-color:#009933"/>
				<stop  offset="0.2756" style="stop-color:#00952F"/>
				<stop  offset="0.5612" style="stop-color:#008824"/>
				<stop  offset="0.8504" style="stop-color:#007411"/>
				<stop  offset="1" style="stop-color:#006605"/>
			</linearGradient>
			<path fill="url(#SVGID_1_)" d="M902.586,0.167C900.405,0.056,898.209,0,896,0H128C57.305,0,0,57.305,0,128v768
				c0,2.209,0.056,4.405,0.167,6.586C3.595,970.214,59.514,1024,128,1024h768c70.688,0,128-57.313,128-128V128
				C1024,59.514,970.214,3.595,902.586,0.167z"/>
		</g>
	</g>
	<path opacity="0.4" d="M1024,410.633l-192-192l-234.007,34.659l42.522,42.505l-56.359,73.734L432.476,217.883l-233.595,39.601
		l56.525,56.485L274,736.416l-27.969,67.439L466.18,1024H896c70.688,0,128-57.313,128-128V410.633z"/>
	<g>
		<polygon fill="#FFFFFF" points="540.537,576.771 546.625,582.856 538.255,614.111 530.645,621.731 497.909,621.731 
			491.072,614.873 500.989,585.94 510.87,576.771 		"/>
		<polygon fill="#FFFFFF" points="475.092,800.047 494.141,800.033 490.312,813 422.595,813 471.27,674.322 448.473,674.312 
			452.262,659.833 523.082,659.833 		"/>
		<polygon fill="#FFFFFF" points="630.312,677.359 656.209,677.359 670.7,660.595 705.687,660.595 720.895,676.598 747.541,676.609 
			762.004,660.595 805.342,660.595 816.031,676.228 777.957,800.048 793.189,800.048 789.372,811.479 729.266,811.479 
			764.283,701.744 707.229,701.746 675.972,800.783 688.933,800.783 685.127,811.479 630.319,811.479 664.58,702.507 
			605.983,702.519 574.782,800.048 587.743,800.045 583.914,811.479 527.589,811.479 574.021,674.328 556.534,674.313 
			561.097,660.595 614.354,660.595 		"/>
		<polygon fill="#FFFFFF" points="491.072,580.559 498.683,573.706 506.293,566.854 507.434,566.479 508.575,566.105 
			519.99,566.104 832,243.743 832,231.188 832,218.633 828.179,214.816 824.358,211 713.268,211 602.179,211 598.385,214.816 
			594.592,218.633 594.58,234.248 594.568,249.864 597.993,253.292 601.417,256.722 621.203,256.722 640.989,256.722 
			640.992,271.965 640.996,287.209 510.861,419.798 380.728,552.388 380.728,404.549 380.728,256.71 402.791,256.716 
			424.854,256.722 428.665,252.906 432.476,249.09 432.476,233.486 432.476,217.883 428.646,214.831 424.818,211.778 
			311.85,211.778 198.881,211.778 195.439,215.208 192,218.637 192,234.608 192,250.578 195.439,254.03 198.881,257.483 
			219.031,257.483 239.182,257.483 239.182,527.234 239.182,796.985 242.606,800.421 246.031,803.855 268.092,803.855 
			290.153,803.855 386.421,704.417 482.689,604.979 486.881,592.769 		"/>
	</g>
</g>
</svg>
